# xmcd
#
# Track frame offsets:
#	150
#	22253
#	40436
#	60386
#	78948
#	93613
#	107088
#	122643
#	139751
#	159816
#	178298
#	197908
#	215724
#	232931
#	248998
#	266633
#	303488
#
# Disc length: 4060 seconds
#
# Revision: 2
# Processed by: cddbd v1.5.2PL0 Copyright (c) Steve Scherf et al.
# Submitted via: audiograbber 1.83.01
#
DISCID=f30fda11
DTITLE=MH1116 Monster Hits -  Female Country Hits (MH)
DYEAR=2008
DGENRE=Karaoke
TTITLE0=Dixie Chicks - Cowboy Take Me Away (MH)
TTITLE1=Trisha Yearwood - Real Live Woman (MH)
TTITLE2=Dixie Chicks - Goodbye Earl (MH)
TTITLE3=Faith Hill - Breathe (MH)
TTITLE4=LeAnn Rimes - Big Deal (MH)
TTITLE5=Martina McBride - I Love You (MH)
TTITLE6=Shedaisy - Little Goodbyes (MH)
TTITLE7=Shania Twain - That Don't Impress Me Much (MH)
TTITLE8=Trisha Yearwood - I'll Still Love You More (MH)
TTITLE9=Jessica Andrews - Unbreakable Heart (MH)
TTITLE10=Faith Hill - The Secret Of Life (MH)
TTITLE11=Dixie Chicks - Ready To Run (MH)
TTITLE12=Shedaisy - But I Will (MH)
TTITLE13=Shania Twain - You've Got A Way (MH)
TTITLE14=Jo Dee Messina - Because You Love Me (MH)
TTITLE15=Martina McBride - Love's The Only House (MH)
TTITLE16=Data - Data Track
EXTD=
EXTT0=
EXTT1=
EXTT2=
EXTT3=
EXTT4=
EXTT5=
EXTT6=
EXTT7=
EXTT8=
EXTT9=
EXTT10=
EXTT11=
EXTT12=
EXTT13=
EXTT14=
EXTT15=
EXTT16=
PLAYORDER=
